<?xml version="1.0" encoding="iso-8859-1"?>
<!-- Generator: Adobe Illustrator 19.0.0, SVG Export Plug-In . SVG Version: 6.00 Build 0)  -->
<svg version="1.1" id="Layer_1" xmlns="http://www.w3.org/2000/svg" xmlns:xlink="http://www.w3.org/1999/xlink" x="0px" y="0px"
	 viewBox="0 0 512 512" style="enable-background:new 0 0 512 512;" xml:space="preserve">
<circle style="fill:#E1E5EA;" cx="256" cy="256" r="256"/>
<rect x="74.872" y="146.472" style="fill:#FFFFFF;" width="362.24" height="257.68"/>
<g>
	<polygon style="fill:#E1E5EA;" points="337.912,377.424 174.088,377.424 147.224,397.848 364.776,397.848 	"/>
	<polygon style="fill:#E1E5EA;" points="153.448,377.424 106.232,377.424 79.368,397.848 126.68,397.848 	"/>
	<polygon style="fill:#E1E5EA;" points="405.768,377.424 358.552,377.424 385.32,397.848 432.632,397.848 	"/>
	<polygon style="fill:#E1E5EA;" points="337.912,173.744 174.088,173.744 147.224,153.32 364.776,153.32 	"/>
	<polygon style="fill:#E1E5EA;" points="153.448,173.744 106.232,173.744 79.368,153.32 126.68,153.32 	"/>
	<polygon style="fill:#E1E5EA;" points="405.768,173.744 358.552,173.744 385.32,153.32 432.632,153.32 	"/>
</g>
<path style="fill:#FFFFFF;" d="M434.248,149.352v251.92H77.752v-251.92H434.248 M440,143.6H72v263.416h368V143.6L440,143.6z"/>
<path d="M72,153.32v-45.808c0-6.328,5.176-11.504,11.504-11.504h344.968c6.328,0,11.504,5.176,11.504,11.504v45.808H72L72,153.32z"
	/>
<polygon style="fill:#FFFFFF;" points="410.976,140.48 195.288,140.48 215.92,108.848 410.976,108.848 "/>
<circle style="fill:#DB2B42;" cx="110.744" cy="124.232" r="9.784"/>
<circle style="fill:#8AD5DD;" cx="136.64" cy="124.232" r="9.784"/>
<circle style="fill:#939393;" cx="162.6" cy="124.232" r="9.784"/>
<path d="M226.976,118.728l1.376,5.976c0.296,1.4,0.6,2.832,0.84,4.264h0.056c0.272-1.432,0.704-2.896,1.08-4.24l1.704-6h2.704
	l1.648,5.84c0.4,1.544,0.752,2.976,1.056,4.408h0.056c0.216-1.432,0.512-2.864,0.864-4.408l1.464-5.84h3.264l-4.136,13.16h-3.08
	l-1.56-5.352c-0.4-1.376-0.704-2.624-1-4.216h-0.056c-0.272,1.624-0.616,2.92-1,4.216l-1.672,5.352h-3.112l-3.888-13.16H226.976z"/>
<path d="M247.648,118.728l1.376,5.976c0.296,1.4,0.6,2.832,0.84,4.264h0.056c0.272-1.432,0.704-2.896,1.08-4.24l1.704-6h2.704
	l1.648,5.84c0.4,1.544,0.752,2.976,1.056,4.408h0.056c0.216-1.432,0.512-2.864,0.864-4.408l1.464-5.84h3.264l-4.136,13.16h-3.08
	l-1.568-5.352c-0.4-1.376-0.704-2.624-1-4.216h-0.056c-0.272,1.624-0.616,2.92-1,4.216l-1.672,5.352h-3.112l-3.896-13.16H247.648z"
	/>
<path d="M268.328,118.728l1.376,5.976c0.296,1.4,0.6,2.832,0.84,4.264h0.056c0.272-1.432,0.704-2.896,1.08-4.24l1.704-6h2.704
	l1.648,5.84c0.4,1.544,0.752,2.976,1.056,4.408h0.056c0.216-1.432,0.512-2.864,0.864-4.408l1.464-5.84h3.264l-4.136,13.16h-3.08
	l-1.56-5.352c-0.4-1.376-0.704-2.624-1-4.216h-0.056c-0.272,1.624-0.616,2.92-1,4.216l-1.672,5.352h-3.112l-3.896-13.16H268.328z"/>
<path d="M284.968,130.048c0-1.248,0.864-2.136,2.056-2.136c1.216,0,2.056,0.864,2.056,2.136c0,1.216-0.808,2.136-2.056,2.136
	C285.816,132.176,284.968,131.256,284.968,130.048z"/>
<polygon points="318.304,401.168 193.696,401.168 210.944,388.056 301.056,388.056 "/>
<rect x="72" y="397.848" width="368" height="9.176"/>
<polygon points="432.632,397.848 385.32,397.848 364.776,397.848 147.224,397.848 126.68,397.848 79.368,397.848 72,397.848 
	72,407.024 440,407.024 440,397.848 "/>
<polygon points="388.504,134.008 386.448,131.992 393.56,124.696 386.024,117.344 388.032,115.288 397.624,124.632 "/>
<rect x="375.04" y="123.224" width="18.984" height="2.872"/>
<rect x="116.68" y="201.92" style="fill:#8AD5DD;" width="76.184" height="152"/>
<rect x="210" y="201.92" width="76.184" height="152"/>
<rect x="303.336" y="201.92" style="fill:#8AD5DD;" width="76.184" height="152"/>
<g>
</g>
<g>
</g>
<g>
</g>
<g>
</g>
<g>
</g>
<g>
</g>
<g>
</g>
<g>
</g>
<g>
</g>
<g>
</g>
<g>
</g>
<g>
</g>
<g>
</g>
<g>
</g>
<g>
</g>
</svg>
